<svg xmlns="http://www.w3.org/2000/svg" xmlns:xlink="http://www.w3.org/1999/xlink" width="500" zoomAndPan="magnify" viewBox="0 0 375 374.999991" height="500" preserveAspectRatio="xMidYMid meet" version="1.0"><path fill="#000000" d="M 201.152344 97.210938 L 211.578125 86.785156 C 232.054688 66.300781 265.390625 65.796875 285.984375 86.15625 C 302.414062 102.410156 305.835938 126.886719 296.238281 146.5625 C 291.511719 156.246094 293.425781 167.855469 301.042969 175.46875 C 329.738281 146.761719 329.691406 100.027344 300.894531 71.382812 C 272.097656 42.734375 225.351562 43.308594 196.636719 72.03125 L 97.253906 171.457031 L 89.082031 163.28125 C 68.253906 142.449219 68.121094 108.398438 89.316406 87.9375 C 105.730469 72.09375 129.996094 69.066406 149.410156 78.855469 C 158.558594 83.472656 169.605469 81.851562 176.847656 74.601562 L 177.101562 74.351562 C 177.433594 74.019531 177.433594 73.480469 177.097656 73.152344 C 148.71875 45.40625 103.253906 45.296875 74.742188 72.832031 C 45.09375 101.464844 45.199219 149.078125 74.339844 178.234375 L 173.703125 277.632812 L 163.144531 288.191406 C 142.671875 308.675781 109.332031 309.179688 88.742188 288.820312 C 72.308594 272.566406 68.886719 248.089844 78.488281 228.417969 C 83.210938 218.738281 81.300781 207.128906 73.679688 199.511719 C 44.976562 228.203125 45.027344 274.945312 73.820312 303.585938 C 102.613281 332.234375 149.359375 331.664062 178.074219 302.9375 L 277.59375 203.378906 L 285.796875 211.582031 C 306.269531 232.066406 306.777344 265.417969 286.421875 286.015625 C 270.175781 302.457031 245.707031 305.878906 226.039062 296.273438 C 216.363281 291.550781 204.757812 293.460938 197.144531 301.082031 C 225.839844 329.789062 272.558594 329.742188 301.191406 300.933594 C 329.828125 272.125 329.257812 225.363281 300.542969 196.640625 Z M 188.539062 262.773438 L 112.09375 186.304688 L 186.3125 112.0625 L 262.753906 188.535156 Z M 188.539062 262.773438 " fill-opacity="1" fill-rule="nonzero"/></svg>