<svg xmlns="http://www.w3.org/2000/svg" xmlns:xlink="http://www.w3.org/1999/xlink" width="500" zoomAndPan="magnify" viewBox="0 0 375 374.999991" height="500" preserveAspectRatio="xMidYMid meet" version="1.0"><defs><g/></defs><path fill="#000000" d="M 193.710938 120.136719 L 198.375 115.492188 C 207.535156 106.363281 222.449219 106.140625 231.660156 115.210938 C 239.011719 122.453125 240.542969 133.359375 236.25 142.128906 C 234.136719 146.441406 234.992188 151.617188 238.398438 155.007812 C 251.238281 142.214844 251.214844 121.390625 238.332031 108.628906 C 225.449219 95.863281 204.535156 96.117188 191.691406 108.917969 L 147.226562 153.222656 L 143.570312 149.578125 C 134.253906 140.292969 134.191406 125.121094 143.675781 116.003906 C 151.019531 108.945312 161.875 107.59375 170.558594 111.957031 C 174.652344 114.015625 179.59375 113.292969 182.835938 110.0625 L 182.949219 109.949219 C 183.097656 109.804688 183.097656 109.5625 182.945312 109.417969 C 170.25 97.054688 149.910156 97.003906 137.152344 109.273438 C 123.890625 122.03125 123.9375 143.25 136.976562 156.242188 L 181.429688 200.53125 L 176.707031 205.238281 C 167.542969 214.363281 152.628906 214.589844 143.417969 205.515625 C 136.066406 198.273438 134.535156 187.367188 138.828125 178.601562 C 140.941406 174.289062 140.089844 169.117188 136.679688 165.722656 C 123.839844 178.507812 123.859375 199.335938 136.742188 212.097656 C 149.625 224.863281 170.539062 224.609375 183.382812 211.808594 L 227.910156 167.445312 L 231.578125 171.101562 C 240.738281 180.230469 240.964844 195.089844 231.859375 204.269531 C 224.589844 211.59375 213.640625 213.117188 204.84375 208.839844 C 200.511719 206.734375 195.320312 207.585938 191.914062 210.980469 C 204.753906 223.773438 225.65625 223.75 238.464844 210.914062 C 251.277344 198.078125 251.019531 177.242188 238.175781 164.441406 Z M 188.066406 193.910156 L 153.867188 159.835938 L 187.070312 126.753906 L 221.269531 160.832031 Z M 188.066406 193.910156 " fill-opacity="1" fill-rule="nonzero"/><g fill="#000000" fill-opacity="1"><g transform="translate(93.971827, 257.546688)"><g><path d="M 9.050781 0.398438 C 13.171875 0.398438 16.273438 -2.476562 16.273438 -6.574219 L 16.273438 -17.5 L 12.472656 -17.5 L 12.472656 -6.75 C 12.472656 -4.574219 11.050781 -3.175781 9.050781 -3.175781 C 7.023438 -3.175781 5.597656 -4.574219 5.597656 -6.75 L 5.597656 -17.5 L 1.800781 -17.5 L 1.800781 -6.574219 C 1.800781 -2.476562 4.898438 0.398438 9.050781 0.398438 Z M 9.050781 0.398438 "/></g></g></g><g fill="#000000" fill-opacity="1"><g transform="translate(112.068963, 257.546688)"><g><path d="M 9.425781 -13.796875 C 7.597656 -13.796875 5.972656 -13.023438 4.949219 -11.824219 L 4.25 -13.5 L 1.75 -13.5 L 1.75 0 L 5.398438 0 L 5.398438 -7.074219 C 5.398438 -9.25 6.550781 -10.597656 8.425781 -10.597656 C 10 -10.597656 10.773438 -9.625 10.773438 -7.574219 L 10.773438 0 L 14.421875 0 L 14.421875 -8.175781 C 14.421875 -11.597656 12.5 -13.796875 9.425781 -13.796875 Z M 9.425781 -13.796875 "/></g></g></g><g fill="#000000" fill-opacity="1"><g transform="translate(128.091423, 257.546688)"><g><path d="M 8.347656 -3.25 C 7 -3.25 6.25 -4 6.25 -5.300781 L 6.25 -10.550781 L 9.925781 -10.550781 L 9.925781 -13.5 L 6.199219 -13.5 L 6.199219 -17 L 5.5 -17 L 0.175781 -11.347656 L 0.175781 -10.550781 L 2.601562 -10.550781 L 2.601562 -4.800781 C 2.601562 -1.824219 4.425781 0 7.398438 0 L 10 0 L 10 -3.25 Z M 8.347656 -3.25 "/></g></g></g><g fill="#000000" fill-opacity="1"><g transform="translate(138.839725, 257.546688)"><g><path d="M 1.75 -15.296875 L 5.375 -15.296875 L 5.375 -18.671875 L 1.75 -18.671875 Z M 1.75 0 L 5.398438 0 L 5.398438 -13.5 L 1.75 -13.5 Z M 1.75 0 "/></g></g></g><g fill="#000000" fill-opacity="1"><g transform="translate(145.988597, 257.546688)"><g><path d="M 8.347656 -3.25 C 7 -3.25 6.25 -4 6.25 -5.300781 L 6.25 -10.550781 L 9.925781 -10.550781 L 9.925781 -13.5 L 6.199219 -13.5 L 6.199219 -17 L 5.5 -17 L 0.175781 -11.347656 L 0.175781 -10.550781 L 2.601562 -10.550781 L 2.601562 -4.800781 C 2.601562 -1.824219 4.425781 0 7.398438 0 L 10 0 L 10 -3.25 Z M 8.347656 -3.25 "/></g></g></g><g fill="#000000" fill-opacity="1"><g transform="translate(156.736898, 257.546688)"><g><path d="M 1.75 0 L 5.398438 0 L 5.398438 -18.347656 L 1.75 -18.347656 Z M 1.75 0 "/></g></g></g><g fill="#000000" fill-opacity="1"><g transform="translate(163.88577, 257.546688)"><g><path d="M 14.847656 -6.773438 C 14.847656 -10.675781 12 -13.875 7.847656 -13.875 C 3.851562 -13.875 0.851562 -10.800781 0.851562 -6.75 C 0.851562 -2.699219 3.875 0.398438 7.847656 0.398438 C 11 0.398438 13.574219 -1.476562 14.546875 -4.425781 L 10.722656 -4.425781 C 10.175781 -3.449219 9.125 -2.851562 7.847656 -2.851562 C 6.074219 -2.851562 4.875 -3.875 4.550781 -5.722656 L 14.773438 -5.722656 C 14.824219 -6.074219 14.847656 -6.425781 14.847656 -6.773438 Z M 7.847656 -10.75 C 9.5 -10.75 10.675781 -9.847656 11.199219 -8.199219 L 4.648438 -8.199219 C 5.074219 -9.800781 6.222656 -10.75 7.847656 -10.75 Z M 7.847656 -10.75 "/></g></g></g><g fill="#000000" fill-opacity="1"><g transform="translate(179.583287, 257.546688)"><g><path d="M 11.648438 -18.347656 L 11.648438 -12.75 C 10.597656 -13.472656 9.347656 -13.875 7.949219 -13.875 C 3.851562 -13.875 0.851562 -10.824219 0.851562 -6.722656 C 0.851562 -2.648438 3.851562 0.425781 7.949219 0.425781 C 9.597656 0.425781 11.050781 -0.148438 12.171875 -1.101562 L 12.597656 0.0234375 L 15.296875 0.0234375 L 15.296875 -18.347656 Z M 8.25 -3.023438 C 6.125 -3.023438 4.574219 -4.625 4.574219 -6.722656 C 4.574219 -8.847656 6.125 -10.425781 8.25 -10.425781 C 10.375 -10.425781 11.921875 -8.847656 11.921875 -6.722656 C 11.921875 -4.625 10.375 -3.023438 8.25 -3.023438 Z M 8.25 -3.023438 "/></g></g></g><g fill="#000000" fill-opacity="1"><g transform="translate(196.655582, 257.546688)"><g/></g></g><g fill="#000000" fill-opacity="1"><g transform="translate(202.629638, 257.546688)"><g><path d="M 8.722656 -17.5 L 2 -17.5 L 2 0 L 5.773438 0 L 5.773438 -5.449219 L 8.722656 -5.449219 C 12.25 -5.449219 14.898438 -8.023438 14.898438 -11.472656 C 14.898438 -14.921875 12.222656 -17.5 8.722656 -17.5 Z M 8.550781 -8.949219 L 5.773438 -8.949219 L 5.773438 -13.972656 L 8.550781 -13.972656 C 10.050781 -13.972656 11.074219 -12.921875 11.074219 -11.472656 C 11.074219 -10.023438 10.050781 -8.949219 8.550781 -8.949219 Z M 8.550781 -8.949219 "/></g></g></g><g fill="#000000" fill-opacity="1"><g transform="translate(218.177179, 257.546688)"><g><path d="M 12.75 -13.5 L 12.375 -12.222656 C 11.199219 -13.25 9.675781 -13.875 7.925781 -13.875 C 3.875 -13.875 0.851562 -10.824219 0.851562 -6.75 C 0.851562 -2.675781 3.875 0.398438 7.925781 0.398438 C 9.648438 0.398438 11.148438 -0.199219 12.296875 -1.226562 L 12.625 0 L 15.472656 0 L 15.472656 -13.5 Z M 8.222656 -3.050781 C 6.097656 -3.050781 4.550781 -4.648438 4.550781 -6.75 C 4.550781 -8.875 6.097656 -10.449219 8.222656 -10.449219 C 10.347656 -10.449219 11.898438 -8.875 11.898438 -6.75 C 11.898438 -4.625 10.347656 -3.050781 8.222656 -3.050781 Z M 8.222656 -3.050781 "/></g></g></g><g fill="#000000" fill-opacity="1"><g transform="translate(235.424443, 257.546688)"><g><path d="M 12.648438 -13.5 L 12.046875 -12.148438 C 10.875 -13.222656 9.324219 -13.875 7.574219 -13.875 C 3.800781 -13.875 0.851562 -10.875 0.851562 -7.097656 C 0.851562 -3.300781 3.800781 -0.324219 7.574219 -0.324219 C 9.023438 -0.324219 10.347656 -0.773438 11.425781 -1.523438 L 11.425781 -1.023438 C 11.425781 0.949219 9.898438 2.148438 8.050781 2.148438 C 6.699219 2.148438 5.273438 1.523438 4.847656 0.300781 L 1.226562 0.300781 C 1.851562 3.375 4.449219 5.25 8.097656 5.25 C 12.375 5.25 15 2.675781 15 -1.550781 L 15 -13.472656 Z M 8 -3.601562 C 6 -3.601562 4.550781 -5.074219 4.550781 -7.074219 C 4.550781 -9.097656 6 -10.574219 8 -10.574219 C 10 -10.574219 11.449219 -9.097656 11.449219 -7.074219 C 11.449219 -5.074219 10 -3.601562 8 -3.601562 Z M 8 -3.601562 "/></g></g></g><g fill="#000000" fill-opacity="1"><g transform="translate(252.196789, 257.546688)"><g><path d="M 14.847656 -6.773438 C 14.847656 -10.675781 12 -13.875 7.847656 -13.875 C 3.851562 -13.875 0.851562 -10.800781 0.851562 -6.75 C 0.851562 -2.699219 3.875 0.398438 7.847656 0.398438 C 11 0.398438 13.574219 -1.476562 14.546875 -4.425781 L 10.722656 -4.425781 C 10.175781 -3.449219 9.125 -2.851562 7.847656 -2.851562 C 6.074219 -2.851562 4.875 -3.875 4.550781 -5.722656 L 14.773438 -5.722656 C 14.824219 -6.074219 14.847656 -6.425781 14.847656 -6.773438 Z M 7.847656 -10.75 C 9.5 -10.75 10.675781 -9.847656 11.199219 -8.199219 L 4.648438 -8.199219 C 5.074219 -9.800781 6.222656 -10.75 7.847656 -10.75 Z M 7.847656 -10.75 "/></g></g></g><g fill="#000000" fill-opacity="1"><g transform="translate(267.894305, 257.546688)"><g><path d="M 6.523438 0.398438 C 9.949219 0.398438 12.199219 -1.398438 12.199219 -4.148438 C 12.199219 -7.449219 9.375 -7.898438 7.175781 -8.300781 C 5.773438 -8.550781 4.625 -8.773438 4.625 -9.675781 C 4.625 -10.449219 5.300781 -10.949219 6.425781 -10.949219 C 7.699219 -10.949219 8.449219 -10.425781 8.472656 -9.347656 L 11.949219 -9.347656 C 11.921875 -12.046875 9.773438 -13.875 6.523438 -13.875 C 3.273438 -13.875 1.101562 -12.097656 1.101562 -9.550781 C 1.101562 -6.375 3.851562 -5.800781 6 -5.425781 C 7.425781 -5.199219 8.597656 -4.925781 8.597656 -4 C 8.597656 -3.101562 7.675781 -2.625 6.675781 -2.625 C 5.375 -2.625 4.449219 -3.226562 4.425781 -4.425781 L 0.875 -4.425781 C 0.875 -1.550781 3.148438 0.398438 6.523438 0.398438 Z M 6.523438 0.398438 "/></g></g></g></svg>